<svg xmlns="http://www.w3.org/2000/svg" viewBox="0 0 814.06 136.74"><defs><style>.cls-1{fill:#005d7b;}.cls-2{fill:#fff;}.cls-3{fill:#ec1e24;}</style></defs><title>ABA-NBC Long Signage</title><g id="Layer_2" data-name="Layer 2"><g id="Layer_1-2" data-name="Layer 1"><g id="ABA-NBC_Long_Signage" data-name="ABA-NBC Long Signage"><rect class="cls-1" width="814.06" height="136.74"/><path class="cls-2" d="M247,44.72h22.37c9.82,0,14.85,4.21,14.85,12,0,4.74-1.79,8-5.64,9.76,4.91,2,7.36,5.68,7.36,11.23,0,8.95-6.14,14.37-17.32,14.37H247ZM267.46,63c4.71,0,7-1.51,7-5.13s-2.31-4.93-7-4.93h-11V63Zm.43,20.51c5.32,0,7.77-1.79,7.77-6.15,0-4.62-2.45-6.24-7.8-6.24H256.37V83.5Z"/><path class="cls-2" d="M323.55,44.72l17.09,47.33H330.48l-3.3-9.74H308.86l-3.15,9.74H295.45l16.89-47.33ZM311.44,74.38h13.18l-6.57-20.22Z"/><polygon class="cls-2" points="352.92 44.72 363.17 44.72 382.41 77.25 382.41 44.72 392.06 44.72 392.06 92.05 381.95 92.05 362.59 59.52 362.59 92.05 352.92 92.05 352.92 44.72"/><polygon class="cls-2" points="410.88 44.72 420.64 44.72 420.64 64.1 439.11 44.72 451.34 44.72 432.44 63.89 453.04 92.05 441.09 92.05 425.71 70.38 420.64 75.36 420.64 92.05 410.88 92.05 410.88 44.72"/><path class="cls-2" d="M77.27,44.72,94.33,92.05H84.11l-3.22-9.73H62.52l-3.1,9.73H49.16L66,44.72ZM65.08,74.34H78.25L71.68,54.2Z"/><path class="cls-2" d="M108,44.72h22.32c9.81,0,14.87,4.27,14.87,12,0,4.73-1.83,8-5.66,9.74,4.95,2,7.32,5.66,7.32,11.22,0,9-6.06,14.4-17.25,14.4H108ZM128.48,63c4.66,0,6.91-1.51,6.91-5.14s-2.29-4.93-7-4.93H117.35V63Zm.38,20.49c5.34,0,7.86-1.8,7.86-6.13,0-4.62-2.52-6.27-7.91-6.27H117.35V83.5Z"/><path class="cls-2" d="M184.58,44.72l17.07,47.33H191.44l-3.24-9.73H169.83l-3.09,9.73H156.49l16.83-47.33ZM172.4,74.34h13.17L179,54.2Z"/><rect class="cls-3" x="206.05" y="35.31" width="9.14" height="18.81"/><path class="cls-3" d="M539.41,55.53a3.79,3.79,0,0,1-2.19.1A3.17,3.17,0,0,1,536,54.38l-6.05-8.27a3.48,3.48,0,0,0-1.27-1.26,3.71,3.71,0,0,0-2.19.1L507,50.32V86.61l19.59-5.34a3.83,3.83,0,0,1,2.2-.1A3.42,3.42,0,0,1,530,82.41l6,8.27a3.52,3.52,0,0,0,1.25,1.24,3.72,3.72,0,0,0,2.19-.11L559,86.6V50.29Z"/><path class="cls-2" d="M700.19,62.58h5.71l1,3.18h3.51L705,50.32h0l-4.5,2.19-4.73,13.25h3.4ZM703,53.8h.05L705,59.91h-3.94Z"/><path class="cls-2" d="M692.92,57.44a3.08,3.08,0,0,0,1.9-3.16c0-1.59-1-4-4.76-4H685.8l-3.26,1.59V65.76h6.55c3.16,0,4-.54,4.89-1.4a4.45,4.45,0,0,0,1.33-3.18A3.59,3.59,0,0,0,692.92,57.44ZM685.64,53h3.71c1.46,0,2.37.38,2.37,1.65s-1,1.72-2.29,1.72h-3.79Zm4,10.1h-4V59h4.12c1.16,0,2.32.51,2.32,1.87C692.08,62.41,691.18,63.09,689.6,63.09Z"/><polygon class="cls-2" points="724.35 65.76 724.35 50.32 721.33 51.79 721.33 61.07 721.29 61.07 715.15 50.32 711.75 51.98 711.75 65.76 714.76 65.76 714.76 54.75 714.81 54.75 721.12 65.76 724.35 65.76"/><polygon class="cls-2" points="730.55 60.53 732.06 58.99 736.84 65.76 741 65.76 734.32 56.64 740.63 50.33 735.62 51.21 730.55 56.6 730.55 50.32 727.32 51.9 727.32 65.76 730.55 65.76 730.55 60.53"/><path class="cls-2" d="M595,50.32l-4.51,2.19-4.73,13.25h3.4l1.08-3.18h5.71l1,3.18h3.51L595,50.32Zm-3.9,9.59,2-6.11h.05L595,59.91Z"/><path class="cls-2" d="M658.17,50.32l-4.51,2.19-4.73,13.25h3.41l1.07-3.18h5.71l1,3.18h3.51l-5.45-15.44Zm-3.88,9.59,2-6.11h0l1.92,6.11Z"/><polygon class="cls-2" points="606.4 65.76 606.4 53.05 609.49 53.05 611.07 50.32 600.07 50.32 598.5 53.04 598.5 53.05 603.17 53.05 603.17 65.76 606.4 65.76"/><polygon class="cls-2" points="615.58 50.32 615.58 50.32 612.35 51.89 612.35 65.76 615.58 65.76 615.58 50.32"/><path class="cls-2" d="M625.16,66.17c2.05,0,7.43-.88,7.43-8.13s-5.38-8.13-7.43-8.13l-.47,0-5.35,2.6A8.67,8.67,0,0,0,617.73,58C617.73,65.29,623.11,66.17,625.16,66.17Zm0-13.53c1.74,0,4.2,1.08,4.2,5.4s-2.46,5.4-4.2,5.4S621,62.36,621,58,623.42,52.64,625.16,52.64Z"/><polygon class="cls-2" points="574.59 54.75 574.63 54.75 580.95 65.76 584.17 65.76 584.17 50.32 581.16 51.79 581.16 61.07 581.12 61.07 574.98 50.32 571.58 51.98 571.58 65.76 574.59 65.76 574.59 54.75"/><polygon class="cls-2" points="644.32 61.07 644.27 61.07 638.13 50.32 634.73 51.98 634.73 65.76 637.75 65.76 637.75 54.75 637.79 54.75 644.1 65.76 647.33 65.76 647.33 50.32 644.32 51.79 644.32 61.07"/><polygon class="cls-2" points="676.13 62.97 668.44 62.97 668.44 50.32 665.21 51.9 665.21 65.76 674.51 65.76 676.13 62.97"/><path class="cls-2" d="M627.52,71.17,623,73.37l-4.73,13.25h3.41l1.07-3.18h5.71l1,3.18H633l-5.46-15.45Zm-3.89,9.6,2-6.11h0l1.92,6.11Z"/><path class="cls-2" d="M687.1,71.17l-4.51,2.2-4.73,13.25h3.41l1.07-3.18h5.71l1,3.18h3.52L687.1,71.17Zm-3.89,9.6,2-6.11h0l1.92,6.11Z"/><path class="cls-2" d="M658,71.17l-4.5,2.2-4.74,13.25h3.41l1.07-3.18H659l1,3.18h3.51L658,71.17Zm-3.89,9.6,2-6.11h0l1.92,6.11Z"/><path class="cls-2" d="M615.15,81.35a3.3,3.3,0,0,1-3.43,2.9c-2.74,0-3.84-2.5-3.84-5.27,0-4.37,2.29-5.4,3.84-5.4a3.15,3.15,0,0,1,3.43,2.66h3.23c-.17-2.28-2-5.46-6.68-5.46h-.18l-5.33,2.6a9.06,9.06,0,0,0-1.6,5.55c0,5.34,2.95,8.12,7.07,8.12,3.88,0,6.08-2.35,6.72-5.7Z"/><polygon class="cls-2" points="644.16 81.93 644.12 81.93 637.98 71.17 634.57 72.83 634.57 86.62 637.59 86.62 637.59 75.61 637.63 75.61 643.95 86.62 647.18 86.62 647.18 71.17 644.16 72.64 644.16 81.93"/><path class="cls-2" d="M671.91,71.17h-3.59l-3.25,1.58V86.62h6.71c5.11,0,6.42-4.77,6.42-8.09C678.2,75.6,677.12,71.17,671.91,71.17ZM671.39,84h-3.15V73.84h3.11c1.38,0,3.55.36,3.55,4.93C674.9,81.31,674,84,671.39,84Z"/><polygon class="cls-2" points="597.35 73.9 598.93 71.17 591.3 71.17 587.92 72.82 587.92 86.62 591.15 86.62 591.15 80.12 596.39 80.12 597.97 77.39 591.15 77.39 591.15 73.9 597.35 73.9"/><path class="cls-2" d="M578.36,70.86l-.47,0-5.36,2.61A8.65,8.65,0,0,0,570.92,79c0,7.25,5.39,8.14,7.44,8.14s7.43-.89,7.43-8.14S580.4,70.86,578.36,70.86Zm0,13.54c-1.75,0-4.21-1.07-4.21-5.4s2.46-5.4,4.21-5.4,4.2,1.07,4.2,5.4S580.1,84.4,578.36,84.4Z"/><path class="cls-2" d="M736.16,70.86l-.47,0-5.36,2.61A8.65,8.65,0,0,0,728.72,79c0,7.25,5.39,8.14,7.44,8.14s7.43-.89,7.43-8.14S738.21,70.86,736.16,70.86Zm0,13.54c-1.75,0-4.21-1.07-4.21-5.4s2.46-5.4,4.21-5.4,4.2,1.07,4.2,5.4S737.9,84.4,736.16,84.4Z"/><path class="cls-2" d="M705.64,80.89h3.41v2a6.35,6.35,0,0,1-1.6.93,5.19,5.19,0,0,1-1.88.39,3.8,3.8,0,0,1-3.06-1.39,6.05,6.05,0,0,1-1.16-4.09,5.48,5.48,0,0,1,1.16-3.84,3.88,3.88,0,0,1,3.06-1.28A3.32,3.32,0,0,1,708.91,76h2.94a5.53,5.53,0,0,0-2-3.92,7.13,7.13,0,0,0-4.3-1.17,7.31,7.31,0,0,0-.81,0l-4.84,2.53a12.32,12.32,0,0,0-.69,1,9.61,9.61,0,0,0-1,4.27,10.18,10.18,0,0,0,.85,4.09,6.48,6.48,0,0,0,2.59,2.92,7.86,7.86,0,0,0,4,1,10,10,0,0,0,3.62-.71,8.18,8.18,0,0,0,2.69-1.67V78.29h-6.41Z"/><path class="cls-2" d="M724.53,81A6.66,6.66,0,0,0,723,79.75a4.55,4.55,0,0,0,2.9-1.42,4.27,4.27,0,0,0,1-2.85,4.8,4.8,0,0,0-.64-2.42,3.39,3.39,0,0,0-1.71-1.45,9.92,9.92,0,0,0-3.44-.43H718l-3.17,1.67V86.54h3V80.1h.58a5.17,5.17,0,0,1,1.5.18,3.4,3.4,0,0,1,.92.64,23.89,23.89,0,0,1,1.53,2.28l2.15,3.34H728l-1.81-3A18.72,18.72,0,0,0,724.53,81ZM720,77.69h-2.18V73.77h2.32c1.19,0,1.9,0,2.14,0a1.74,1.74,0,0,1,1.54,1.88,2,2,0,0,1-.31,1.14,1.44,1.44,0,0,1-.82.64A9.48,9.48,0,0,1,720,77.69Z"/><path class="cls-2" d="M754.39,79.68a20.26,20.26,0,0,1-.14,2.59,2.11,2.11,0,0,1-.78,1.32,2.71,2.71,0,0,1-1.91.57,3.18,3.18,0,0,1-1.95-.57,2.66,2.66,0,0,1-.92-1.53,21.08,21.08,0,0,1-.1-2.56V71.18l-3,1.53v6.65a19.39,19.39,0,0,0,.27,3.91,4.17,4.17,0,0,0,.85,1.71,4.72,4.72,0,0,0,1.71,1.31,8.18,8.18,0,0,0,3.2.5,7.09,7.09,0,0,0,2.83-.46,4.61,4.61,0,0,0,1.74-1.25,4.85,4.85,0,0,0,.88-1.92,20.9,20.9,0,0,0,.24-3.91V71.18l-3,1.56Z"/><path class="cls-2" d="M770.89,72.92a3.88,3.88,0,0,0-2.12-1.53,17.78,17.78,0,0,0-3.51-.21h-1.57l-3.2,1.67V86.54h3V80.75h1.95a16.9,16.9,0,0,0,3.07-.22,4.18,4.18,0,0,0,1.53-.75,4.06,4.06,0,0,0,1.26-1.49,5.11,5.11,0,0,0,.48-2.38A4.74,4.74,0,0,0,770.89,72.92Zm-2.53,4.23a2.31,2.31,0,0,1-1,.75,7.71,7.71,0,0,1-2.32.25h-1.64V73.77h1.44a13.81,13.81,0,0,1,2.14.11,2.16,2.16,0,0,1,1.2.68,2.06,2.06,0,0,1,.47,1.38A2.29,2.29,0,0,1,768.36,77.15Z"/><rect class="cls-2" x="478.59" y="31.92" width="2.58" height="72.98"/></g></g></g></svg>